<svg xmlns="http://www.w3.org/2000/svg" viewBox="0 0 419.39 295.02"><defs><style>.cls-1{fill:#7a5621;}.cls-2{fill:#62b25b;}.cls-3{fill:#b28c4f;}</style></defs><title>logoRecurso 3</title><g id="Capa_2" data-name="Capa 2"><g id="LOGO_3" data-name="LOGO 3"><path class="cls-1" d="M105.25,172.92a14.56,14.56,0,0,0-7.2,4.35A30.63,30.63,0,0,0,92,186.74l27.31-3.14a28.47,28.47,0,0,1-2.08-4.21C115,173.76,110.36,171.69,105.25,172.92Z"/><path class="cls-1" d="M368.28,172.09a35.89,35.89,0,0,0-2.82-4.52c-5.91-7.82-13.57-9-21.41-2.76a186.62,186.62,0,0,0-15,13l43.07,3A67,67,0,0,0,368.28,172.09Z"/><path class="cls-1" d="M234.94,119.35V106.71l38.41,2.74a30.2,30.2,0,0,0-1.87-2.9c-4.88-6.72-4.38-12.2,1.71-17.2l-38.25-2.73V76.18l-12-11.3-10.18,11.3V87.56l-32.12,3.82a28.49,28.49,0,0,1-4.94,2.15c-3.58,1.07-7.33,1.37-11,2s-3.75.6-3.77,5.3a62.49,62.49,0,0,0,1.12,13l50.72-6v12.78l-40.2,4.78c5.59,5.28,8.13,12.07,8.59,19.17l31.61-3.76v11.94l-32.61,3.75a53.23,53.23,0,0,1-1.91,6.61A68.53,68.53,0,0,1,171,177.65l41.73-4.8v17.27q11.22.06,22.19.4V171.34l20,1.38c3.33-6.46,6.72-12.9,9.94-19.41l-29.94-2.07V139.45L270.23,142q2.38-5.37,4.45-10.85a28.62,28.62,0,0,0,1.86-8.8Z"/><path d="M294.17,12.35c2.23-.4,9,17.2,12.81,23.16a12.14,12.14,0,0,0,10.7,6c4.63,0,15-1.83,16.51-8.92.95-4.54,1.94-24.65,3.75-24.76s6.62,12.69,6.78,13.84A37.45,37.45,0,0,0,346,28c2.17,6.77,7.55,11,14.36,13.71,5.14,2.07,10.64,3.46,15.67,5.73a190.83,190.83,0,0,1,43.37,26.93q-3-5.75-6.43-11.28c-3.33-2.46-6.79-4.77-10.31-7a199.2,199.2,0,0,0-38.85-19c-5.89-2.18-10.52-5.66-12.17-11.34-2.69-9.26-11.11-26-14.77-25.79-4.08.2-6.18,21.8-8.9,30.58-2.06,6.65-11.79,7.65-16.45,2.15-3.79-4.48-6.59-9.68-9.65-14.59-2.65-4.25-4.17-12.68-7.77-12.49C288,6,286.51,34.23,291.9,44.77c1.91,3.74,3.13,6.53.07,10.09-1.42,1.65-2.09,3.89-2.8,6-1.27,3.63-2.28,7.33-3.45,11-2,6.35-5,12.14-11,16.37-7.53,5.33-8.51,11.14-3.25,18.39,5.61,7.73,6.46,15.81,3.2,24.57-6.91,18.55-17.16,35.76-25.77,53.63v2.09a41.91,41.91,0,0,0,1.41,5.89c2.28,8.75,7.07,16.44,12.45,23.84,2.32,3.2,5.94,5.18,10,6.25a48.13,48.13,0,0,0,25.24-.09c9-2.46,15.49-9.59,16-17a35.94,35.94,0,0,1,8.3-20.47c6.22-7.69,13.89-14.18,21.72-20.44s15.5-5.06,21.41,2.76a35.89,35.89,0,0,1,2.82,4.52A90.68,90.68,0,0,1,374,186c4.41,12.71,6.84,51.9,8.38,74.16l1.05-1c0-23-.95-71.08-8.12-84.92-2.23-4.31-5-8.39-7.29-12.67-2.43-4.54-1.75-7.49,2.13-11.07.81-.75,1.67-1.45,2.42-2.24,3.71-3.9,4.59-8.4,3.5-13.83a109.9,109.9,0,0,1-6,9.45c-5.3,7.31-12.2,12.62-21.81,14.67a31.42,31.42,0,0,0-5.87,2.06c-6.92,3-12.18,7.76-17.34,12.68-9.48,9.05-18.43,18.49-23.8,30.11-3.84,8.34-10.56,12.37-20.21,13.14-10.33.83-13-.44-18-8.66A145.94,145.94,0,0,0,255,195.25c-2.47-3.26-2.13-6.28-.64-9.55.37-.79.77-1.58,1.2-2.36,5.12-9.3,10.38-18.54,15.34-27.92,6.22-11.77,12.95-25.12,11.05-38.35-.58-4-1.78-7.37-2.18-11.43-.85-8.5-.25-15.58,6.07-22.2,3.79-4,4.4-9.1,5.78-14,1.11-3.94,2.24-7.92,4.89-11.31,3.33-4.25,3.44-8.68,1.11-13.3-1.19-2.36-2.51-4.68-3.49-7.11C291.37,30.9,292.34,12.68,294.17,12.35Z"/><path class="cls-2" d="M137.17,198.58a21.94,21.94,0,0,1-16.31-3.91q-14.44,1.56-28.06,3.62c-4.4,9.28-9.49,20-14,28H379.88c-.49-5.78-1-11.51-1.66-16.83a530.34,530.34,0,0,0-62.51-12.27,34.88,34.88,0,0,0-1.68,8.52c-.52,7.42-7,14.55-16,17a48.13,48.13,0,0,1-25.24.09c-4.07-1.07-7.69-3-10-6.25-5.38-7.4-10.17-15.09-12.45-23.84l-.45-1.61c-13.61-.67-27.58-1-41.83-1-17.47,0-34.54.54-51,1.54A48.05,48.05,0,0,1,137.17,198.58Z"/><path d="M184.6,57.92c-8.29-4.71-17.07-7.72-25.74-11.12a38.18,38.18,0,0,1-13-8.59c-11.48-11.33-24.58-17.28-39.41-17.6-.44,0-8.11.09-10.55.48C76.57,24.24,60.68,34.47,49.3,54c-1.34,2.29-2.8,3.37-5.08,3.45-4.35.17-8.67.68-13,.71a19.37,19.37,0,0,1-11.86-3.9c-2.21-1.61-4.39-3.27-6.57-4.92C11.1,51.5,9.5,53.71,8,55.94c2.94,1.68,5.88,3.37,8.8,5.1a20.78,20.78,0,0,0,13.11,3.12c2.78-.31,5.57-.49,8.36-.73-4.5,3.06-9,5.69-13.22,9.14-3.39,2.8-6.57,5.86-8.77,10.14-4.59,9,.68,22.66,9.32,23.26,8.12.56,16.32.73,24.42-.71,3.66-.64,7.36-1.41,10.4-4.32a8.11,8.11,0,0,0,3-6.12c-13.79,4.16-20.66,5-34.65,3.93-2.36-.18-4.64-.49-6.05-3.46-2.32-4.91-2.09-7.68,1.59-11.78a47.33,47.33,0,0,1,16.7-12c6.07-2.59,10.29-7.25,13.9-13.42C66.19,38.7,82.13,29.28,101.45,27.9c14.86-1.07,28.27,4,39.91,15.35a48,48,0,0,0,17.36,11.13c6.23,2.25,12.35,4.95,18.46,7.65,4.51,2,8.89,4.36,12.32,8.67,3.29,4.13,3.16,6.38-.89,9.2-4.32,3-8.87,5.46-13.84,6.46-3.84.78-7.7,1.39-11.56,2-6,.94-8.24,4-8.3,11.17a100.83,100.83,0,0,0,.54,11.79c.81,7.31,2.81,13.51,9,16.6a20.89,20.89,0,0,1,6,5,16.36,16.36,0,0,1,4.13,9c1.74,13.31-5.42,31.73-15.59,39.85-6.11,4.88-12.75,8.33-20,9.58-8.8,1.52-17.17-.09-21.88-12-2.23-5.62-6.83-7.7-11.93-6.47A14.5,14.5,0,0,0,98,177.25a30.6,30.6,0,0,0-6.24,9.87c-2.72,7.33-9.29,22.36-21,43-.84,1.49-18.84,24.54-28.42,37.54.53.44,1.06.88,1.6,1.31,10.23-11.21,27.69-31.6,30.69-35.89,6.7-9.55,16.34-31.22,22.65-44.1,1.76-3.6,3.77-7,7.09-8.8,3.67-2,6.56-1,8.21,3.13,4.94,12.39,14.64,16.57,24.6,15.26,19.15-2.5,33.26-13.92,41.06-35.56,5.19-14.4,4.77-32.05-10.64-41.48-.65-.39-1.25-.9-1.91-1.25-1.79-1-2.75-2.66-3.29-4.89a60,60,0,0,1-1.48-14.6c0-4.7,0-4.68,3.77-5.3s7.43-.9,11-2c8.51-2.54,25.59-16.36,25.59-18.11C198.74,67.9,190.45,61.24,184.6,57.92Z"/><g id="LETRERO"><rect id="letrero-2" data-name="letrero" class="cls-3" y="226.3" width="416.9" height="68.73" rx="11.18"/><g id="texto"><path d="M57.09,280.62H19.17V271.1h3.09V250.39H19.12v-9.52h38v12.72H46.66v-3.2h-9v6.11h7.86v8.09H37.63v6.51h9v-3.2H57.09Z"/><path d="M100.32,280.62H62.49V271.1h3.57V250.39H62.49v-9.52H85.21v9.52H81.44V271.1h9.4v-6.37h9.48Z"/><path d="M150,263.1l10.32,3.63a18.22,18.22,0,0,1-6,10.43q-4.77,4.08-13.14,4.09-11.43,0-16.92-6a20.57,20.57,0,0,1-5.51-14.52,21.2,21.2,0,0,1,5.4-14.66,18,18,0,0,1,14-6q7,0,11.4,3.46v-2.66h9.54v14.52h-9.91a8.69,8.69,0,0,0-2.6-4.29,6.29,6.29,0,0,0-4.18-1.54q-6.45,0-6.45,11.11t6.68,11.15Q148.54,271.82,150,263.1Z"/><path d="M165.73,260.65a20.54,20.54,0,0,1,2.43-9.63,20.19,20.19,0,0,1,7.46-7.8,18.2,18.2,0,0,1,3.7-1.78,25.47,25.47,0,0,1,4.13-1,29.32,29.32,0,0,1,4.68-.36q10.69,0,16.55,6.26a22,22,0,0,1,4.4,6.69,20.27,20.27,0,0,1-4.57,22.08q-6.06,6.15-16.38,6.15-10,0-16.17-5.77A19.28,19.28,0,0,1,165.73,260.65Zm17.26,0c0,4.41.43,7.4,1.29,8.94a4.07,4.07,0,0,0,3.85,2.34,4.19,4.19,0,0,0,3.89-2.26q1.29-2.28,1.29-9,0-6.56-1.26-8.92a4.43,4.43,0,0,0-7.77-.08Q183,253.9,183,260.65Z"/><path d="M237.63,280.62H216V271.1h3.23V250.39H216v-9.52h21.61c1.94,0,3.74,0,5.4.1s3.07.17,4.25.29a30.76,30.76,0,0,1,3.26.5,12,12,0,0,1,6.77,3.86,10.51,10.51,0,0,1,2.63,7.14,10.19,10.19,0,0,1-1.6,5.6,9.63,9.63,0,0,1-4.2,3.66l5.49,9.08h2.86v9.52H248.17l-8.66-16.23h-4.88v6.71h3Zm-3-31v7.57h1.71a34.11,34.11,0,0,0,4.57-.2,3.63,3.63,0,0,0,2.17-1.14,3.29,3.29,0,0,0,.89-2.43,3.39,3.39,0,0,0-.89-2.46,3.7,3.7,0,0,0-2.25-1.14,36.61,36.61,0,0,0-4.8-.2Z"/><path d="M287.6,280.62H266V271.1h3.23V250.39H266v-9.52h21.6c1.95,0,3.75,0,5.4.1s3.08.17,4.26.29a30.76,30.76,0,0,1,3.26.5,12,12,0,0,1,6.77,3.86,10.56,10.56,0,0,1,2.63,7.14,10.19,10.19,0,0,1-1.6,5.6,9.63,9.63,0,0,1-4.2,3.66l5.48,9.08h2.86v9.52H298.15l-8.66-16.23H284.6v6.71h3Zm-3-31v7.57h1.72a34.21,34.21,0,0,0,4.57-.2,3.63,3.63,0,0,0,2.17-1.14,3.29,3.29,0,0,0,.89-2.43,3.39,3.39,0,0,0-.89-2.46,3.7,3.7,0,0,0-2.26-1.14,36.41,36.41,0,0,0-4.8-.2Z"/><path d="M329.81,280.62H314.06V271.1h3l7.46-20.71h-3.2v-9.52h28.57v9.52h-3.2l7.6,20.71h2.92v9.52H336.49V271.9H340l-1.51-5H328.29l-1.74,5h3.26ZM333.55,251l-3.74,11h7.11Z"/><path d="M397.79,280.62H360V271.1h3.57V250.39H360v-9.52h22.72v9.52H378.9V271.1h9.4v-6.37h9.49Z"/></g></g></g></g></svg>